<svg xmlns="http://www.w3.org/2000/svg" width="800" height="1000" viewBox="0 0 800 1000">
  <rect width="800" height="1000" rx="48" fill="#0d1117"/>
  <rect x="90" y="90" width="620" height="820" rx="36" fill="#161d28"/>
  <circle cx="400" cy="360" r="180" fill="#f0c39d"/>
  <path d="M226 730c40-142 152-216 174-216 120 0 158 110 174 216" fill="#1e2b3a"/>
  <rect x="250" y="290" width="300" height="220" rx="120" fill="#121721"/>
  <path d="M245 420c40-105 116-160 155-160 78 0 135 89 155 160" fill="#0e1420"/>
  <circle cx="320" cy="355" r="16" fill="#11161d"/>
  <circle cx="480" cy="355" r="16" fill="#11161d"/>
  <path d="M332 448c34 24 92 24 126 0" stroke="#b9784d" stroke-width="14" fill="none" stroke-linecap="round"/>
  <rect x="180" y="120" width="440" height="86" rx="26" fill="#b7ff2f" opacity="0.14"/>
</svg>