<svg xmlns="http://www.w3.org/2000/svg" width="800" height="1000" viewBox="0 0 800 1000">
  <rect width="800" height="1000" rx="48" fill="#0d1117"/>
  <rect x="90" y="90" width="620" height="820" rx="36" fill="#171d2a"/>
  <circle cx="400" cy="348" r="170" fill="#f1c69d"/>
  <path d="M214 710c48-130 136-196 186-196 122 0 164 120 186 196" fill="#243244"/>
  <rect x="238" y="274" width="324" height="238" rx="124" fill="#131a24"/>
  <path d="M238 434c44-108 116-164 162-164s118 56 162 164" fill="#0e141f"/>
  <circle cx="330" cy="345" r="16" fill="#11161d"/>
  <circle cx="470" cy="345" r="16" fill="#11161d"/>
  <path d="M330 455c40 26 100 26 140 0" stroke="#cf9575" stroke-width="14" fill="none" stroke-linecap="round"/>
  <rect x="176" y="118" width="448" height="78" rx="24" fill="#b7ff2f" opacity="0.14"/>
</svg>