<svg xmlns="http://www.w3.org/2000/svg" width="800" height="1000" viewBox="0 0 800 1000">
  <rect width="800" height="1000" rx="48" fill="#0d1117"/>
  <rect x="90" y="90" width="620" height="820" rx="36" fill="#171d2b"/>
  <circle cx="400" cy="348" r="170" fill="#efc59f"/>
  <path d="M226 710c42-128 138-194 174-194 130 0 176 124 174 194" fill="#243345"/>
  <rect x="236" y="282" width="328" height="232" rx="126" fill="#121723"/>
  <path d="M238 428c42-108 112-160 162-160s120 52 162 160" fill="#0e1420"/>
  <circle cx="330" cy="344" r="16" fill="#11161d"/>
  <circle cx="470" cy="344" r="16" fill="#11161d"/>
  <path d="M330 454c44 24 96 24 140 0" stroke="#c48462" stroke-width="14" fill="none" stroke-linecap="round"/>
  <rect x="168" y="122" width="464" height="82" rx="24" fill="#b7ff2f" opacity="0.14"/>
</svg>